<svg
  class="mx-auto h-auto w-32 py-3 sm:mx-0 lg:w-40 lg:py-5"
  xmlns="http://www.w3.org/2000/svg"
  viewBox="0 0 113.386 56.692"
>
<path
    d="M14.173 18.221v6.684h2.34l1.439 2.418 1.438-2.418h2.34v6.883h-2.234v-3.412l-1.544 2.447h-.038l-1.544-2.447v3.412h-2.197v6.683H34.42v-6.683h-5.397v-6.883h2.244v4.916h3.153v-11.6H14.173Zm8.328 6.684h5.748v1.888h-3.542v.697h3.278v1.662h-3.278v.747h3.542v1.889H22.5v-6.883Zm15.98 6.015h2.64v.686h-1.875v.71h1.65V33h-1.65v.735h1.9v.685H38.48V30.92Zm3.325 2.001v-2h.77v1.98c0 .57.285.865.755.865.47 0 .755-.285.755-.84V30.92h.77v1.976c0 1.06-.595 1.58-1.535 1.58s-1.515-.525-1.515-1.555Zm3.864-2h1.6c.446 0 .79.125 1.02.354.196.196.301.47.301.8v.01c0 .565-.305.92-.75 1.086l.855 1.25h-.9l-.75-1.12h-.605v1.12h-.77v-3.5Zm3.49 1.76v-.01c0-.996.785-1.81 1.865-1.81s1.855.804 1.855 1.8v.01c0 .995-.785 1.81-1.865 1.81-1.079 0-1.855-.805-1.855-1.8Zm4.435-1.761h1.43c.835 0 1.34.495 1.34 1.21v.01c0 .81-.63 1.231-1.415 1.231h-.585v1.05h-.77V30.92Zm4.995-1.06.655.285-.68.5h-.58l.605-.785Zm-1.625 1.06h2.64v.686H57.73v.71h1.65V33h-1.65v.735h1.9v.685h-2.665v-3.5Zm3.38 0h2.639v.686h-1.875v.71h1.65V33h-1.65v.735h1.9v.685h-2.664V30.92v.001Zm3.379 0h.71l1.64 2.156V30.92h.76v3.501h-.654l-1.696-2.226v2.226h-.76v-3.5Zm3.98 0h.71l1.64 2.156V30.92h.76v3.501h-.655l-1.695-2.226v2.226h-.76v-3.5Zm3.98 0h2.64v.686h-1.876v.71h1.65V33h-1.65v.735h1.902v.685h-2.666V30.92v.001Zm4.91 0h1.364c1.1 0 1.86.755 1.86 1.741v.01c0 .985-.76 1.75-1.86 1.75h-1.364v-3.5Zm3.94 0h2.64v.686h-1.877v.71h1.65V33h-1.65v.735H83.2v.685h-2.665V30.92v.001Zm4.909 0h.77v2.8h1.745v.701h-2.515v-3.5Zm3.16 3.501v-3.5h.77v3.5h-.77Zm1.674-3.5h.77v2.8h1.746v.7h-2.516v-3.5Zm3.125 0h.77v2.8h1.745v.7h-2.515v-3.5Zm3.125 0h2.652v.685h-1.887v.71h1.65V33h-1.65v.735h1.92v.685h-2.685V30.92v.001ZM38.47 22.271h1.933l1.574 2.556 1.574-2.556h1.933v6.6h-1.82v-3.79l-1.687 2.583h-.037l-1.679-2.573v3.78h-1.79v-6.6Zm11.182-1.98 1.706.519-1.395 1.009h-1.329l1.018-1.528Zm-2.989 1.98h5.307v1.546h-3.497v1.01h3.168v1.442h-3.168v1.047h3.545v1.556h-5.355v-6.601Zm7.92 1.603h-1.97v-1.603h5.778v1.603h-1.98v4.998h-1.828v-4.998Zm4.62-1.603h3.12c1.009 0 1.706.264 2.15.707.386.386.583.886.583 1.537v.019c0 1.019-.537 1.688-1.357 2.037l1.575 2.3h-2.103l-1.329-1.999h-.81v2h-1.83v-6.601Zm6.57 3.32v-.02c0-1.895 1.528-3.432 3.564-3.432s3.545 1.518 3.545 3.414v.018c0 1.896-1.527 3.433-3.564 3.433s-3.545-1.519-3.545-3.414Zm8.061-3.32h2.838c1.659 0 2.734.858 2.734 2.31v.02c0 1.564-1.197 2.385-2.828 2.385h-.914v1.886h-1.83v-6.601Zm6.139 3.32v-.02c0-1.895 1.527-3.432 3.563-3.432s3.545 1.518 3.545 3.414v.018c0 1.896-1.528 3.433-3.564 3.433s-3.544-1.519-3.544-3.414Zm8.06-3.32h1.829v4.998h3.196v1.604h-5.025v-6.602Zm5.826 0h5.308v1.546H95.67v1.01h3.167v1.442h-3.167v1.047h3.54v1.556h-5.35v-6.601ZM52.076 32.68v-.01c0-.6-.44-1.1-1.06-1.1s-1.05.49-1.05 1.09v.01c0 .6.44 1.1 1.06 1.1s1.05-.49 1.05-1.09Zm2.9.005c.385 0 .61-.23.61-.53v-.01c0-.345-.24-.53-.625-.53h-.596v1.07h.611Zm21.566-7.131c.641 0 1.046-.35 1.046-.868v-.019c0-.566-.405-.858-1.055-.858h-.867v1.745h.876Zm.823 6.06v2.112h.594c.63 0 1.055-.426 1.055-1.046v-.01c0-.62-.425-1.055-1.055-1.055h-.594Zm-6.357-6.023v-.019c0-.962-.68-1.781-1.688-1.781s-1.678.81-1.678 1.763v.018c0 .952.688 1.783 1.697 1.783 1 0 1.669-.812 1.669-1.764Zm14.198 0v-.019c0-.962-.678-1.781-1.687-1.781s-1.678.81-1.678 1.763v.018c0 .952.688 1.783 1.697 1.783.999 0 1.668-.812 1.668-1.764Zm-37.985 7.03c.376 0 .59-.2.59-.496v-.01c0-.33-.229-.5-.604-.5h-.765v1.006h.78Zm15.029-7.18c.612 0 .98-.302.98-.783v-.02c0-.527-.387-.79-.99-.79h-1.207v1.592h1.217Z"
    fill="#c20e1a"
    fill-rule="evenodd"
  />
</svg>
