<svg
  class="mx-auto h-auto w-32 py-3 sm:mx-0 lg:w-40 lg:py-5"
  xmlns="http://www.w3.org/2000/svg"
  viewBox="0 0 283.46 113.39"
  style="enable-background:new 0 0 283.46 113.39"
  xml:space="preserve"
>
    <style>
        .st0{fill:#fff}
    </style>
    <switch>
        <g>
            <path style="fill:#139fc6" d="M0 0h283.46v113.39H0z" />
            <path
        class="st0"
        d="M69.58 59h-.21L45.56 13.45H21.64v67.08H38.9l-.61-45.84h.2l24.63 45.84h23.31V13.45H69.27zM199.88 29.89c-1.82-.29-4.04-.58-6.16-.58-7.87 0-12.41 4.04-15.54 10.38h-.2v-9.23h-16.55v50.07h18.16V59.39c0-9.8 4.74-15.67 13.22-15.67 2.12 0 4.14 0 6.16.58l.91-14.41zM243.11 8.45V36.9h-.2c-4.64-5.77-10.8-7.59-18.06-7.59-14.53 0-22.5 12.97-22.5 25.28 0 14.8 8.38 27.1 24.02 27.1 8.38 0 15.74-4.52 18.06-10.09h.2v8.94h16.75V8.45h-18.27zm-11 59.97c-6.86 0-11-5.48-11-13.46 0-6.63 3.93-12.4 11-12.4 6.66 0 11.1 5.48 11.1 13.07 0 7.32-5.04 12.79-11.1 12.79zM124.06 29.31c-17.36 0-30.58 9.61-30.58 26.24 0 16.53 13.22 26.14 30.58 26.14s30.57-9.61 30.57-26.14c.01-16.63-13.21-26.24-30.57-26.24zm0 40.27c-8.38 0-11.81-6.63-11.81-14.03 0-7.5 3.43-14.13 11.81-14.13s11.81 6.63 11.81 14.13c0 7.4-3.43 14.03-11.81 14.03zM21.51 90.22h2.03v11.37h-2.03V90.22zM34.97 101.15c-.74.41-1.59.62-2.68.62-2.58 0-4.08-1.48-4.08-4.05 0-2.26 1.2-4.12 3.62-4.12 2.89 0 3.71 1.99 3.71 4.71h-5.39c.09 1.26.97 1.97 2.23 1.97.99 0 1.83-.36 2.59-.79v1.66zm-1.37-4.23c-.06-.99-.52-1.83-1.65-1.83s-1.71.79-1.8 1.83h3.45zM47.59 91.01h2.89c3.24 0 6.11 1.09 6.11 5.29s-2.86 5.29-6.11 5.29h-2.89V91.01zm2.12 8.91h1.18c1.77 0 3.49-1.32 3.49-3.62s-1.71-3.62-3.49-3.62h-1.18v7.24zM67.63 101.15c-.74.41-1.59.62-2.68.62-2.58 0-4.08-1.48-4.08-4.05 0-2.26 1.2-4.12 3.62-4.12 2.89 0 3.71 1.99 3.71 4.71h-5.39c.09 1.26.97 1.97 2.23 1.97.99 0 1.83-.36 2.59-.79v1.66zm-1.36-4.23c-.06-.99-.52-1.83-1.65-1.83-1.14 0-1.71.79-1.8 1.83h3.45zm-1.59-6.41h2.08l-2.08 2.21h-1.26l1.26-2.21zM72.83 93.78h1.94v1.11h.03c.45-.76 1.23-1.29 2.42-1.29 2.39 0 3.27 1.91 3.27 4.06 0 2.14-.88 4.11-3.32 4.11-.86 0-1.58-.21-2.29-1.07h-.03v4.08h-2.03v-11zm2.04 3.88c0 1.11.44 2.53 1.79 2.53 1.33 0 1.71-1.45 1.71-2.53 0-1.05-.36-2.48-1.68-2.48-1.3 0-1.82 1.39-1.82 2.48zM85.46 94.19c.79-.36 1.85-.59 2.71-.59 2.38 0 3.36.99 3.36 3.29v1a52.01 52.01 0 0 0 .12 3.7h-1.79c-.08-.41-.08-.92-.09-1.17h-.03c-.47.86-1.48 1.35-2.41 1.35-1.38 0-2.73-.83-2.73-2.32 0-1.17.56-1.85 1.33-2.23.77-.38 1.77-.45 2.62-.45h1.12c0-1.26-.56-1.68-1.76-1.68-.86 0-1.73.33-2.41.85l-.04-1.75zm2.38 6.1c.62 0 1.11-.27 1.42-.7.33-.44.42-1 .42-1.61h-.88c-.91 0-2.26.15-2.26 1.35.02.67.58.96 1.3.96zM96.62 93.78h1.8v1.77h.03c.09-.73.92-1.96 2.14-1.96.2 0 .41 0 .62.06v2.04c-.18-.11-.55-.17-.91-.17-1.65 0-1.65 2.06-1.65 3.18v2.86h-2.03v-7.78zM106.16 95.27h-1.5v-1.49h1.5v-1.56l2.03-.65v2.21h1.8v1.49h-1.8v3.64c0 .67.18 1.29.96 1.29.36 0 .71-.08.92-.21l.06 1.61c-.42.12-.89.18-1.5.18-1.59 0-2.47-.99-2.47-2.53v-3.98zM120.68 101.15c-.74.41-1.59.62-2.68.62-2.58 0-4.08-1.48-4.08-4.05 0-2.26 1.2-4.12 3.62-4.12 2.89 0 3.71 1.99 3.71 4.71h-5.39c.09 1.26.97 1.97 2.23 1.97.99 0 1.83-.36 2.59-.79v1.66zm-1.37-4.23c-.06-.99-.52-1.83-1.65-1.83s-1.71.79-1.8 1.83h3.45zM125.84 93.78h1.89v1.09h.03c.64-.96 1.56-1.27 2.32-1.27 1.09 0 1.86.41 2.3 1.38.47-.94 1.49-1.38 2.44-1.38 1.92 0 2.47 1.32 2.47 3.06v4.93h-2.03v-4.65c0-.73 0-1.76-1.17-1.76-1.35 0-1.52 1.61-1.52 2.62v3.79h-2.03v-4.65c0-.73 0-1.76-1.17-1.76-1.35 0-1.52 1.61-1.52 2.62v3.79h-2.03v-7.81zM148.63 101.15c-.74.41-1.59.62-2.68.62-2.58 0-4.08-1.48-4.08-4.05 0-2.26 1.2-4.12 3.62-4.12 2.89 0 3.71 1.99 3.71 4.71h-5.4c.09 1.26.97 1.97 2.23 1.97.99 0 1.83-.36 2.59-.79v1.66zm-1.36-4.23c-.06-.99-.52-1.83-1.65-1.83-1.14 0-1.71.79-1.8 1.83h3.45zM153.83 93.78h1.92v1.06h.03c.64-.89 1.5-1.24 2.56-1.24 1.85 0 2.65 1.3 2.65 3.06v4.93h-2.03v-4.17c0-.95-.02-2.24-1.32-2.24-1.47 0-1.79 1.59-1.79 2.59v3.82h-2.03v-7.81zM166.78 95.27h-1.5v-1.49h1.5v-1.56l2.03-.65v2.21h1.8v1.49h-1.8v3.64c0 .67.18 1.29.95 1.29.36 0 .71-.08.92-.21l.06 1.61c-.42.12-.89.18-1.5.18-1.59 0-2.47-.99-2.47-2.53v-3.98zM188.54 101.15c-.74.41-1.59.62-2.68.62-2.58 0-4.08-1.48-4.08-4.05 0-2.26 1.2-4.12 3.62-4.12 2.89 0 3.71 1.99 3.71 4.71h-5.4c.09 1.26.97 1.97 2.23 1.97.99 0 1.83-.36 2.59-.79v1.66zm-1.36-4.23c-.06-.99-.52-1.83-1.65-1.83-1.14 0-1.71.79-1.8 1.83h3.45zM198.37 95.42c-.62-.21-1.07-.33-1.82-.33-.55 0-1.2.2-1.2.86 0 1.24 3.53.46 3.53 3.27 0 1.82-1.62 2.54-3.27 2.54-.77 0-1.56-.14-2.3-.33l.12-1.67c.64.32 1.3.52 2 .52.51 0 1.33-.2 1.33-.96 0-1.53-3.53-.48-3.53-3.3 0-1.68 1.47-2.42 3.06-2.42.95 0 1.58.15 2.21.29l-.13 1.53zM204.16 95.27h-1.5v-1.49h1.5v-1.56l2.03-.65v2.21h1.8v1.49h-1.8v3.64c0 .67.18 1.29.95 1.29.36 0 .71-.08.92-.21l.06 1.61c-.42.12-.89.18-1.5.18-1.59 0-2.47-.99-2.47-2.53v-3.98zM219.71 90.22h2.03v11.37h-2.03V90.22zM227.25 94.19c.79-.36 1.85-.59 2.71-.59 2.38 0 3.37.99 3.37 3.29v1a52.01 52.01 0 0 0 .12 3.7h-1.79c-.08-.41-.08-.92-.09-1.17h-.03c-.47.86-1.49 1.35-2.41 1.35-1.38 0-2.73-.83-2.73-2.32 0-1.17.56-1.85 1.33-2.23.77-.38 1.77-.45 2.62-.45h1.12c0-1.26-.56-1.68-1.76-1.68-.86 0-1.73.33-2.41.85l-.05-1.75zm3.81-1.47h-1.26l-2.08-2.21h2.08l1.26 2.21zm-1.43 7.57c.62 0 1.11-.27 1.42-.7.33-.44.42-1 .42-1.61h-.88c-.91 0-2.26.15-2.26 1.35.01.67.57.96 1.3.96zM258.67 94.13c-1.04 0-1.88.69-2.19 1.62h-15.2v1.42h15.2c.3.94 1.15 1.62 2.19 1.62 1.29 0 2.33-1.04 2.33-2.33s-1.05-2.33-2.33-2.33z"
      />
        </g>
    </switch>
</svg>
